<mxfile host="app.diagrams.net" agent="Mozilla/5.0 (Windows NT 10.0; Win64; x64) AppleWebKit/537.36 (KHTML, like Gecko) Chrome/122.0.0.0 Safari/537.36" version="26.2.9">
  <diagram name="1 oldal" id="ZRo3TNaSbQ_DCoS2osNK">
    <mxGraphModel dx="2414" dy="834" grid="1" gridSize="10" guides="1" tooltips="1" connect="1" arrows="1" fold="1" page="1" pageScale="1" pageWidth="827" pageHeight="1169" math="0" shadow="0">
      <root>
        <mxCell id="0" />
        <mxCell id="1" parent="0" />
        <mxCell id="ND5cs1ynHQCrha36b8v5-1" value="" style="rounded=0;whiteSpace=wrap;html=1;" vertex="1" parent="1">
          <mxGeometry x="-470" y="300" width="1080" height="480" as="geometry" />
        </mxCell>
        <mxCell id="ND5cs1ynHQCrha36b8v5-2" value="" style="rounded=0;whiteSpace=wrap;html=1;" vertex="1" parent="1">
          <mxGeometry x="-470" y="300" width="1080" height="120" as="geometry" />
        </mxCell>
        <mxCell id="ND5cs1ynHQCrha36b8v5-3" style="edgeStyle=orthogonalEdgeStyle;rounded=0;orthogonalLoop=1;jettySize=auto;html=1;exitX=0.5;exitY=0;exitDx=0;exitDy=0;" edge="1" parent="1" source="ND5cs1ynHQCrha36b8v5-4">
          <mxGeometry relative="1" as="geometry">
            <mxPoint x="70" y="760" as="targetPoint" />
          </mxGeometry>
        </mxCell>
        <mxCell id="ND5cs1ynHQCrha36b8v5-4" value="" style="rounded=0;whiteSpace=wrap;html=1;" vertex="1" parent="1">
          <mxGeometry x="-470" y="760" width="1080" height="20" as="geometry" />
        </mxCell>
        <mxCell id="ND5cs1ynHQCrha36b8v5-5" value="" style="rounded=0;whiteSpace=wrap;html=1;" vertex="1" parent="1">
          <mxGeometry x="510" y="300" width="100" height="120" as="geometry" />
        </mxCell>
        <mxCell id="ND5cs1ynHQCrha36b8v5-6" value="" style="rounded=0;whiteSpace=wrap;html=1;" vertex="1" parent="1">
          <mxGeometry x="-360" y="330" width="120" height="60" as="geometry" />
        </mxCell>
        <mxCell id="ND5cs1ynHQCrha36b8v5-7" value="" style="rounded=0;whiteSpace=wrap;html=1;" vertex="1" parent="1">
          <mxGeometry x="240" y="360" width="120" height="60" as="geometry" />
        </mxCell>
        <mxCell id="ND5cs1ynHQCrha36b8v5-8" value="" style="rounded=0;whiteSpace=wrap;html=1;" vertex="1" parent="1">
          <mxGeometry x="-210" y="330" width="120" height="60" as="geometry" />
        </mxCell>
        <mxCell id="ND5cs1ynHQCrha36b8v5-9" value="" style="rounded=0;whiteSpace=wrap;html=1;" vertex="1" parent="1">
          <mxGeometry x="90" y="360" width="120" height="60" as="geometry" />
        </mxCell>
        <mxCell id="ND5cs1ynHQCrha36b8v5-10" value="" style="rounded=0;whiteSpace=wrap;html=1;" vertex="1" parent="1">
          <mxGeometry x="-60" y="330" width="120" height="60" as="geometry" />
        </mxCell>
        <mxCell id="ND5cs1ynHQCrha36b8v5-11" value="" style="rounded=0;whiteSpace=wrap;html=1;" vertex="1" parent="1">
          <mxGeometry x="-400" y="420" width="940" height="340" as="geometry" />
        </mxCell>
        <mxCell id="ND5cs1ynHQCrha36b8v5-12" value="Kezdőlap" style="text;html=1;align=center;verticalAlign=middle;whiteSpace=wrap;rounded=0;" vertex="1" parent="1">
          <mxGeometry x="-360" y="330" width="120" height="60" as="geometry" />
        </mxCell>
        <mxCell id="ND5cs1ynHQCrha36b8v5-13" value="" style="rounded=0;whiteSpace=wrap;html=1;" vertex="1" parent="1">
          <mxGeometry x="-450" y="330" width="60" height="60" as="geometry" />
        </mxCell>
        <mxCell id="ND5cs1ynHQCrha36b8v5-14" value="&lt;div&gt;Logo&lt;/div&gt;" style="text;html=1;align=center;verticalAlign=middle;whiteSpace=wrap;rounded=0;" vertex="1" parent="1">
          <mxGeometry x="-450" y="330" width="60" height="60" as="geometry" />
        </mxCell>
        <mxCell id="ND5cs1ynHQCrha36b8v5-15" value="Zenék" style="text;html=1;align=center;verticalAlign=middle;whiteSpace=wrap;rounded=0;" vertex="1" parent="1">
          <mxGeometry x="-210" y="330" width="120" height="60" as="geometry" />
        </mxCell>
        <mxCell id="ND5cs1ynHQCrha36b8v5-16" value="Filmek/Sorozatok" style="text;html=1;align=center;verticalAlign=middle;whiteSpace=wrap;rounded=0;" vertex="1" parent="1">
          <mxGeometry x="-60" y="330" width="120" height="60" as="geometry" />
        </mxCell>
        <mxCell id="ND5cs1ynHQCrha36b8v5-17" value="Rendelési kosár" style="text;html=1;align=center;verticalAlign=middle;whiteSpace=wrap;rounded=0;" vertex="1" parent="1">
          <mxGeometry x="90" y="370" width="120" height="60" as="geometry" />
        </mxCell>
        <mxCell id="ND5cs1ynHQCrha36b8v5-18" value="Footer (C)" style="text;html=1;align=center;verticalAlign=middle;whiteSpace=wrap;rounded=0;" vertex="1" parent="1">
          <mxGeometry x="-470" y="760" width="1080" height="20" as="geometry" />
        </mxCell>
        <mxCell id="ND5cs1ynHQCrha36b8v5-19" value="margin" style="text;html=1;align=center;verticalAlign=middle;whiteSpace=wrap;rounded=0;" vertex="1" parent="1">
          <mxGeometry x="-470" y="420" width="70" height="340" as="geometry" />
        </mxCell>
        <mxCell id="ND5cs1ynHQCrha36b8v5-20" value="margin" style="text;html=1;align=center;verticalAlign=middle;whiteSpace=wrap;rounded=0;" vertex="1" parent="1">
          <mxGeometry x="540" y="420" width="70" height="340" as="geometry" />
        </mxCell>
        <mxCell id="ND5cs1ynHQCrha36b8v5-21" value="Fiók bej/reg" style="rounded=0;whiteSpace=wrap;html=1;" vertex="1" parent="1">
          <mxGeometry x="515" y="340" width="90" height="40" as="geometry" />
        </mxCell>
        <mxCell id="ND5cs1ynHQCrha36b8v5-22" value="" style="rounded=0;whiteSpace=wrap;html=1;" vertex="1" parent="1">
          <mxGeometry x="380" y="330" width="120" height="60" as="geometry" />
        </mxCell>
        <mxCell id="ND5cs1ynHQCrha36b8v5-23" value="Kapcsolat" style="text;html=1;align=center;verticalAlign=middle;whiteSpace=wrap;rounded=0;" vertex="1" parent="1">
          <mxGeometry x="380" y="330" width="120" height="60" as="geometry" />
        </mxCell>
        <mxCell id="ND5cs1ynHQCrha36b8v5-24" value="Foglalási kosár" style="text;html=1;align=center;verticalAlign=middle;whiteSpace=wrap;rounded=0;" vertex="1" parent="1">
          <mxGeometry x="240" y="370" width="120" height="60" as="geometry" />
        </mxCell>
        <mxCell id="ND5cs1ynHQCrha36b8v5-25" value="Kosár" style="rounded=0;whiteSpace=wrap;html=1;" vertex="1" parent="1">
          <mxGeometry x="90" y="320" width="270" height="60" as="geometry" />
        </mxCell>
        <mxCell id="ND5cs1ynHQCrha36b8v5-26" value="A kosáron belül lesz külön rendelési és foglalási kosár" style="text;html=1;align=center;verticalAlign=middle;whiteSpace=wrap;rounded=0;" vertex="1" parent="1">
          <mxGeometry x="230" y="230" width="200" height="30" as="geometry" />
        </mxCell>
        <mxCell id="ND5cs1ynHQCrha36b8v5-27" value="" style="endArrow=classic;html=1;rounded=0;entryX=0.37;entryY=0;entryDx=0;entryDy=0;shape=flexArrow;entryPerimeter=0;exitX=0.135;exitY=0.867;exitDx=0;exitDy=0;exitPerimeter=0;" edge="1" parent="1" source="ND5cs1ynHQCrha36b8v5-26" target="ND5cs1ynHQCrha36b8v5-25">
          <mxGeometry width="50" height="50" relative="1" as="geometry">
            <mxPoint x="110" y="280" as="sourcePoint" />
            <mxPoint x="-10" y="360" as="targetPoint" />
          </mxGeometry>
        </mxCell>
        <mxCell id="ND5cs1ynHQCrha36b8v5-30" value="Filmek" style="rounded=0;whiteSpace=wrap;html=1;" vertex="1" parent="1">
          <mxGeometry x="-160" y="500" width="160" height="120" as="geometry" />
        </mxCell>
        <mxCell id="ND5cs1ynHQCrha36b8v5-31" value="Sorozatok" style="rounded=0;whiteSpace=wrap;html=1;" vertex="1" parent="1">
          <mxGeometry x="120" y="500" width="160" height="120" as="geometry" />
        </mxCell>
      </root>
    </mxGraphModel>
  </diagram>
</mxfile>
